# xmcd
#
# Track frame offsets: 
#        150
#        18815
#        43946
#        64539
#        87409
#        108097
#        124970
#        144066
#
# Disc length: 2473 seconds
#
# Revision: 3
# Processed by: cddbd v1.5.2PL0 Copyright (c) Steve Scherf et al.
# Submitted via: ExactAudioCopy v0.99pb3
#
DISCID=5f09a708
DTITLE=Albert Collins - Frostbite
DYEAR=1980
DGENRE=Blues
TTITLE0=If You Love Me Like You Say
TTITLE1=Blue Monday Hangover
TTITLE2=I Got A Problem
TTITLE3=The Highway Is Like A Woman
TTITLE4=Brick
TTITLE5=Don't Go Reaching Across My Plate
TTITLE6=Give Me My Blues
TTITLE7=Snowed In
EXTD=
EXTT0=
EXTT1=
EXTT2=
EXTT3=
EXTT4=
EXTT5=
EXTT6=
EXTT7=
PLAYORDER=
